<svg width="285.352" height="77.345" viewBox="0 0 285.352 77.345" xmlns="http://www.w3.org/2000/svg"><g id="svgGroup" stroke-linecap="round" fill-rule="evenodd" font-size="9pt" stroke="#4a4c4e" stroke-width="0.25mm" fill="#4a4c4e" style="stroke:#4a4c4e;stroke-width:0.25mm;fill:#4a4c4e"><path d="M 43.164 75.781 L 0 75.781 L 0 68.213 L 16.65 68.213 L 16.65 7.617 L 0 7.617 L 0 0 L 43.164 0 L 43.164 7.617 L 26.514 7.617 L 26.514 68.213 L 43.164 68.213 L 43.164 75.781 Z M 68.262 75.781 L 59.18 75.781 L 59.18 21.24 L 68.262 21.24 L 68.262 33.154 A 33.621 33.621 0 0 1 73.166 26.933 A 28.101 28.101 0 0 1 77.686 23.291 Q 83.203 19.727 88.721 19.727 A 15.819 15.819 0 0 1 97.51 22.29 A 14.329 14.329 0 0 1 101.451 26.004 A 13.415 13.415 0 0 1 103.052 29.004 Q 104.639 33.154 104.639 45.313 L 104.639 75.781 L 95.557 75.781 L 95.557 44.189 Q 95.557 37.147 94.949 34.396 A 8.049 8.049 0 0 0 94.8 33.813 Q 94.043 31.299 92.017 29.688 A 7.535 7.535 0 0 0 89.83 28.454 A 6.667 6.667 0 0 0 87.598 28.076 A 11.865 11.865 0 0 0 83.275 28.945 Q 81.574 29.609 79.794 30.778 A 28.218 28.218 0 0 0 77.319 32.617 A 35.711 35.711 0 0 0 69.243 42.219 A 41.681 41.681 0 0 0 68.262 43.994 L 68.262 75.781 Z M 284.57 63.867 L 284.57 72.168 A 58.594 58.594 0 0 1 275.267 75.706 Q 269.613 77.293 264.307 77.342 A 36.603 36.603 0 0 1 263.965 77.344 A 25.359 25.359 0 0 1 255.359 75.913 A 23.259 23.259 0 0 1 250.781 73.682 A 25.104 25.104 0 0 1 243.118 66.037 A 31.17 31.17 0 0 1 241.479 63.208 Q 237.988 56.396 237.988 48.633 A 32.66 32.66 0 0 1 241.309 34.277 A 27.001 27.001 0 0 1 246.411 26.941 A 24.504 24.504 0 0 1 250.586 23.56 Q 256.543 19.727 263.867 19.727 A 22.003 22.003 0 0 1 271.352 20.949 A 18.907 18.907 0 0 1 279.468 26.66 Q 283.7 31.647 284.888 40.525 A 56.864 56.864 0 0 1 285.352 48.047 L 285.352 50 L 247.754 50 A 23.503 23.503 0 0 0 248.861 57.287 A 21.44 21.44 0 0 0 250.122 60.352 A 19.419 19.419 0 0 0 252.669 64.231 A 15.217 15.217 0 0 0 256.348 67.383 A 16.188 16.188 0 0 0 263.622 69.669 A 19.761 19.761 0 0 0 265.137 69.727 Q 272.304 69.727 280.704 65.831 A 62.944 62.944 0 0 0 284.57 63.867 Z M 206.201 75.781 L 196.924 75.781 L 173.242 21.24 L 183.203 21.24 L 201.904 64.404 L 220.996 21.24 L 230.078 21.24 L 206.201 75.781 Z M 132.903 75.945 A 27.134 27.134 0 0 0 141.65 77.295 A 31.781 31.781 0 0 0 143.49 77.242 A 23.053 23.053 0 0 0 160.352 69.116 A 28.006 28.006 0 0 0 166.134 58.221 A 36.215 36.215 0 0 0 167.383 48.486 A 38.992 38.992 0 0 0 166.943 42.529 A 28.621 28.621 0 0 0 160.352 27.881 A 22.563 22.563 0 0 0 150.367 21.072 A 27.036 27.036 0 0 0 141.65 19.727 Q 129.932 19.727 122.9 27.881 A 27.898 27.898 0 0 0 117.097 38.829 A 36.218 36.218 0 0 0 115.869 48.486 A 39.022 39.022 0 0 0 116.309 54.445 A 28.73 28.73 0 0 0 122.9 69.116 A 22.548 22.548 0 0 0 132.903 75.945 Z M 141.65 69.727 Q 148.926 69.727 153.223 64.063 A 19.448 19.448 0 0 0 156.342 57.699 Q 157.142 54.964 157.399 51.691 A 41.067 41.067 0 0 0 157.52 48.486 A 36.603 36.603 0 0 0 157.035 42.333 Q 156.465 39.001 155.228 36.321 A 18.072 18.072 0 0 0 153.223 32.959 A 13.592 13.592 0 0 0 143.423 27.383 A 17.366 17.366 0 0 0 141.65 27.295 A 15.224 15.224 0 0 0 136.009 28.303 Q 132.541 29.674 130.068 32.908 A 17.293 17.293 0 0 0 130.029 32.959 A 19.493 19.493 0 0 0 126.892 39.371 Q 126.095 42.115 125.846 45.394 A 40.832 40.832 0 0 0 125.732 48.486 Q 125.732 55.589 127.939 60.51 A 18.104 18.104 0 0 0 130.029 64.063 Q 134.326 69.727 141.65 69.727 Z M 248.291 43.213 L 275.488 43.213 L 275.488 41.895 Q 275.488 35.205 272.217 31.25 A 10.588 10.588 0 0 0 264.483 27.33 A 14.314 14.314 0 0 0 263.477 27.295 A 13.02 13.02 0 0 0 254.057 31.198 A 16.514 16.514 0 0 0 253.931 31.323 Q 250.66 34.594 248.982 40.393 A 36.594 36.594 0 0 0 248.291 43.213 Z" vector-effect="non-scaling-stroke"/></g></svg>